<?xml version="1.0" encoding="UTF-8" standalone="no"?>
<!DOCTYPE svg PUBLIC "-//W3C//DTD SVG 1.1//EN" "http://www.w3.org/Graphics/SVG/1.1/DTD/svg11.dtd">
<svg width="100%" height="100%" viewBox="0 0 512 512" version="1.1" xmlns="http://www.w3.org/2000/svg" xmlns:xlink="http://www.w3.org/1999/xlink" xml:space="preserve" xmlns:serif="http://www.serif.com/" style="fill-rule:evenodd;clip-rule:evenodd;stroke-linejoin:round;stroke-miterlimit:2;">
    <g transform="matrix(42.6667,0,0,42.6667,-8648.33,-7385.48)">
        <path d="M202.695,177.452L202.695,177.316C202.695,175.678 203.879,174.281 205.494,174.012C206.541,173.834 207.65,174.182 208.414,174.947L208.695,175.228L208.955,174.947C209.741,174.182 210.828,173.834 211.897,174.012C213.512,174.281 214.695,175.678 214.695,177.316L214.695,177.452C214.695,178.425 214.292,179.355 213.58,180.019L209.344,183.973C209.169,184.137 208.937,184.228 208.695,184.228C208.454,184.228 208.222,184.137 208.046,183.973L203.811,180.019C203.099,179.355 202.695,178.425 202.695,177.452L202.695,177.452Z" style="fill:white;fill-rule:nonzero;"/>
    </g>
    <g transform="matrix(21.4277,0,0,21.4277,-742.19,-167.201)">
        <path d="M51.074,17.5L51.074,19C51.074,19.413 50.737,19.75 50.345,19.75L48.095,19.75L48.095,25C48.095,25.413 47.758,25.75 47.366,25.75L45.845,25.75C45.432,25.75 45.095,25.413 45.095,25L45.095,19.75L42.845,19.75C42.432,19.75 42.095,19.413 42.095,19L42.095,17.5C42.095,17.087 42.432,16.75 42.845,16.75L45.095,16.75L45.095,14.5C45.095,14.087 45.432,13.75 45.845,13.75L47.345,13.75C47.758,13.75 48.074,14.087 48.074,14.5L48.074,16.75L50.324,16.75C50.757,16.75 51.074,17.088 51.074,17.5Z" style="fill:rgb(249,66,55);fill-rule:nonzero;"/>
    </g>
</svg>
